<svg xmlns="http://www.w3.org/2000/svg" enable-background="new 0 0 47.5 47.5" viewBox="0 0 47.5 47.5" id="document"><defs><clipPath id="a"><path d="M0 38h38V0H0v38Z"></path></clipPath></defs><g clip-path="url(#a)" transform="matrix(1.25 0 0 -1.25 0 47.5)"><path fill="#e1e8ed" d="m0 0-9 9a2.001 2.001 0 0 1-2.829-2.828l-3.859-3.859 9-9 3.859 3.859A2 2 0 0 1 0 0" transform="translate(33.415 27.414)"></path><path fill="#ccd6dd" d="M0 0h-15a4 4 0 0 1-4-4v-28a4 4 0 0 1 4-4H7a4 4 0 0 1 4 4v21H2c-1 0-2 1-2 2v9z" transform="translate(23 37)"></path><path fill="#99aab5" d="M0 0h-2v-9a4 4 0 0 1 4-4h9v2H2c-1 0-2 1-2 2v9z" transform="translate(23 37)"></path><path fill="#99aab5" d="M0 0a1 1 0 0 0-1-1h-8a1 1 0 0 0 0 2h8a1 1 0 0 0 1-1" transform="translate(18 29)"></path><path fill="#99aab5" d="M0 0a1 1 0 0 0-1-1h-8a1 1 0 0 0 0 2h8a1 1 0 0 0 1-1" transform="translate(18 25)"></path><path fill="#99aab5" d="M0 0a1 1 0 0 0-1-1h-20a1 1 0 0 0 0 2h20a1 1 0 0 0 1-1" transform="translate(30 21)"></path><path fill="#99aab5" d="M0 0a1 1 0 0 0-1-1h-20a1 1 0 1 0 0 2h20a1 1 0 0 0 1-1" transform="translate(30 17)"></path><path fill="#99aab5" d="M0 0a1 1 0 0 0-1-1h-20a1 1 0 1 0 0 2h20a1 1 0 0 0 1-1" transform="translate(30 13)"></path><path fill="#99aab5" d="M0 0a1 1 0 0 0-1-1h-20a1 1 0 1 0 0 2h20a1 1 0 0 0 1-1" transform="translate(30 9)"></path></g></svg>